<svg xmlns="http://www.w3.org/2000/svg" xmlns:xlink="http://www.w3.org/1999/xlink" viewBox="0 0 400 217" xmlns:v="https://vecta.io/nano"><style><![CDATA[.C{fill:#fff}.D{font-size:13.333px}.E{text-anchor:middle}.F{clip-path:url(#P)}.G{fill:#5effb6}.H{font-family:Trebuchet MS}.I{font-size:37.333px}.J{clip-path:url(#T)}.K{clip-path:url(#L)}.L{clip-path:url(#N)}]]></style><defs><clipPath /><clipPath /><clipPath /><clipPath id="D"><use xlink:href="#F"/></clipPath><clipPath id="E"><use xlink:href="#W" href="#F"/></clipPath><path id="F" d="M27.92 18.07h106.37V38.1H27.92z"/></defs><path d="M0-.32h400v217H0z" fill="#fa0050"/><defs><path id="G" d="M28.96 183.72h123.76v22.1H28.96z"/></defs><clipPath id="H"><use xlink:href="#G"/></clipPath><g clip-path="url(#H)"><defs><path id="I" d="M28.96 183.72h123.76v22.1H28.96z"/></defs><clipPath id="J"><use xlink:href="#I"/></clipPath><path clip-path="url(#J)" d="M147.41 205.82H34.12a5.16 5.16 0 0 1-5.16-5.16v-11.78a5.16 5.16 0 0 1 5.16-5.16h113.29a5.16 5.16 0 0 1 5.16 5.16v11.78a5.16 5.16 0 0 1-5.16 5.16" class="G"/></g><text transform="scale(.99985162 1.0001484)" y="199.54" x="47.851" xml:space="preserve" font-size="36.054" class="H"><tspan y="199.54" x="47.851" font-size="16.739">Sipariş Ver</tspan></text><text y="52.247" x="24.382" xml:space="preserve" font-size="18.667" class="H"><tspan y="52.247" x="24.382" font-size="16" class="C">BU BÖLGEDEN <tspan font-weight="bold">YEMEKSEPETİ İLE</tspan> KOLAYCA</tspan><tspan y="75.581" x="24.382" font-size="16" class="C">SİPARİŞ VEREBİLİRSİN!</tspan></text><text y="152.809" x="65.591" xml:space="preserve" class="H I"><tspan y="152.809" x="65.591" class="C D E">24 Saat</tspan><tspan y="165.92" x="71.206"><tspan class="C D E">Canlı Destek</tspan></tspan></text><text xml:space="preserve" x="184.006" y="153.273" class="H I"><tspan x="184.006" y="153.273" class="C D E">On Binlerce</tspan><tspan x="189.621" y="166.384"><tspan class="C D E">İndirimli Menü</tspan></tspan></text><text xml:space="preserve" x="309.849" y="151.588" class="H I"><tspan x="309.849" y="151.588" class="C D E">Yüz Binlerce</tspan><tspan x="315.463" y="164.698"><tspan class="C D E">Seçenek</tspan></tspan></text><path d="M120.225 92.135h.562v76.966h-.562zm135.404 1.494h.562v76.966h-.562z" fill-opacity=".9" class="C"/><defs><path id="K" d="M297.26 99.45h32.88v33.42h-32.88z"/></defs><clipPath id="L"><use xlink:href="#K"/></clipPath><g class="K"><defs><path id="M" d="M297.26 99.45h32.88v33.42h-32.88z"/></defs><clipPath id="N"><use xlink:href="#M"/></clipPath><g class="G"><path d="M301.92 104.87l-2.14 5.95c-.43 1.19-.88 2.26-1 3.52l-1.36 14.56c-.13 1.42-.68 3.67 1.35 3.91 1.24.15 2.59 0 3.84 0h15.2c2.24 0 4.19-.14 5.94-1.82l1.39-1.38c.17-.17.48-.37.6-.59a.7.7 0 0 0 .15-.15c-.03.25-.71.01-.37.2.38.21 1.53 0 1.97 0h1.58c.73 0 1.16-.93 1.07-1.55l-1.14-7.96-1.1-7.69c-.67-2.83-1.9-5.64-2.82-8.39l-1.01-2.99c-.47-1.06-1.36-.97-2.32-.97-6.25 0-12.51-.15-18.76 0-1.5.03-2.45.71-3.29 1.93-.61.89-2.46 2.88-1.51 4.03.46.57 1.43.39 2.07.39h4.4 12.41c.95 0 2.06.16 3 0 1.14-.2 2.11-1.99 2.82-2.83.68-.81.13-2.12-.76-1.07l-2.04 2.42c.24-.14.49-.27.73-.41H305.1c-1.81 0-3.63-.06-5.44 0-.4.01-.4.32.02-.31l.58-.87c.5-.75.74-1.31 1.79-1.42.65-.07 1.34 0 2 0h17.47c.69 0 1 .14 1.29.8.52 1.19.85 2.52 1.26 3.75.79 2.35 1.84 4.73 2.4 7.15.59 2.49.74 5.16 1.1 7.69l1.14 7.96 1.07-1.55h-3.02c-.89 0-1.2.18-1.84.81-.83.83-1.68 1.9-2.74 2.44-.81.41-1.65.48-2.52.48h-13.5-5.93c-.52 0-1.3.11-1.52-.52-.11-.3.09-.97.12-1.28l1.31-14.1c.06-.63.09-1.27.18-1.9.03-.22-.08.26-.05.13.03-.11.08-.22.12-.33.18-.46.34-.93.5-1.4l2.35-6.53c.45-1.28-.96-1.11-1.32-.11" class="L"/><path d="M322.53 130.6c.06-7.2-.07-14.43.33-21.62l.38-6.88c.07-1.19-1.44.05-1.48.82l-.55 10.14c-.11 4.43-.07 8.88-.11 13.31l-.04 5.06c-.02 1.2 1.47-.05 1.47-.83" class="L"/></g><defs><path id="O" d="M305.8 111.33h11v13.82h-11z"/></defs><clipPath id="P"><use xlink:href="#O"/></clipPath><g class="G"><path d="M313.72 116.45h1.46c.14 0 .99-.09 1.05.03.07.11-.13.69-.15.81l-.3 1.63-.72 3.88-.25 1.36c-.01.05-.02.26-.05.29-.07.06.02-.02-.14-.05-.3-.04-.64 0-.94 0h-1.82-3.5c-.39 0-.46.04-.55-.43l-.12-.63-.66-3.55-.4-2.13c-.08-.42-.11-.89-.24-1.29-.08-.24.03.01-.04-.02.25.08-.65.08.2.1h.1l.35.01 1.79.07-.14-.13c.29 1.13 1.19 2.12 2.4 2.19a2.49 2.49 0 0 0 1.48-.38c.34-.22.63-.52.85-.86.09-.14.36-.89.43-.91.29-.05.54-.79.14-.72-.69.12-.7 1.06-1.08 1.52-.36.44-.93.65-1.49.63-1.09-.04-1.9-.92-2.16-1.94-.02-.06-.07-.12-.14-.13l-1.79-.07c-.54-.02-1.16-.1-1.41.5-.11.26-.05.49 0 .75l.28 1.5.81 4.33c.09.47.16 2.19.77 2.31.25.05.56 0 .81 0h1.98 3.72c.9-.01 1.06-.62 1.2-1.36l.73-3.92.43-2.3c.07-.39.19-.81.22-1.21.05-.6-.4-.63-.85-.63h-1.95c-.35.02-.65.75-.31.75" class="F"/><path d="M307.06 115.62l-.18-1.44c-.02-.19 0-.52-.09-.69-.03-.07-.09.08-.03.11s.37-.05.44-.06c.27-.04.39.01.47.25.07.24.08.52.12.77l.22 1.41c.06.38.6-.19.55-.48l-.29-1.84c-.03-.2-.03-.46-.14-.64-.2-.35-.59-.24-.91-.19-.36.05-.66.09-.87.42-.17.26-.15.52-.11.81l.23 1.88c.08.48.63 0 .59-.31m2.21.24l-.24-2.99c-.01-.1-.09-.41-.04-.49s-.05.06.02.03c.09-.04.25-.03.35-.04.35-.04.43-.06.47.31l.08.71c.06.47.61-.01.58-.32-.06-.49.04-1.47-.65-1.45-.69.01-1.43.22-1.43 1.06.01 1.16.19 2.35.28 3.51.04.46.61-.03.58-.33" class="F"/><path d="M310.42 117.49l-.17-2.43-.06-.87c-.01-.1-.1-.52-.04-.58-.11.12.39.04.46.05.18.03.26.07.31.25.08.25.05.6.07.86l.11 1.35.15 1.85c.04.47.6-.01.58-.32l-.2-2.45-.11-1.35c-.02-.3-.01-.66-.31-.84-.31-.19-1.02-.09-1.28.13-.46.38-.34.96-.3 1.48l.23 3.18c.01.48.57-.01.56-.31" class="F"/><path d="M312.93 117.46l.05-4.16c.01-.48.14-1.21-.51-1.3-.81-.11-1.29.1-1.58.92-.18.5.37.44.51.05.12-.34.18-.25.53-.24.25.01.43.02.49.28.1.46-.01 1.08-.02 1.54l-.04 3.24c-.01.46.57-.02.57-.33" class="F"/><path d="M313.44 117.06l.27-4.07.06-.89c0-.05-.01-.16.01-.2-.1.19.07.16.24.18.32.02.47.12.44.44l-.08 1.05-.17 2.23c-.01.19.15.22.29.17.18-.07.27-.32.28-.49l.17-2.29c.04-.56.36-1.69-.43-1.83-.81-.15-1.29.25-1.35 1.06l-.18 2.64-.15 2.32c-.01.19.15.22.29.17.2-.07.3-.32.31-.49" class="F"/><path d="M316.29 115.66l.45-1.82c.16-.66-.15-1.06-.84-1.14-.81-.08-.93.77-1.03 1.36l-.3 1.81c-.09.52.5.2.56-.14l.21-1.25.13-.81c.01-.06.01-.22.04-.26.08-.09-.02 0 .13.04.23.06.55.07.57.36.01.18-.11.44-.15.61l-.34 1.39c-.12.5.49.18.57-.15" class="F"/></g></g><defs><path id="Q" d="M160.6 101.17h45.18v29.57H160.6z"/></defs><clipPath id="R"><use xlink:href="#Q"/></clipPath><g clip-path="url(#R)"><defs><path id="S" d="M160.6 101.17h45.18v29.57H160.6z"/></defs><clipPath id="T"><use xlink:href="#S"/></clipPath><g class="G"><path d="M167.52 116.25c-4.22.01-.96-5.34.33-6.87 2.45-2.92 6.06-4.56 9.7-5.43 4.87-1.17 10.21-1.27 14.99.54 3.33 1.26 6.25 3.55 7.83 6.8 1.23 2.53-1.38 2.33-3.02 2.46l-16.44 1.38-13.39 1.12c-.81.07-1.58 1.99-.72 1.92l31.22-2.62c.44-.04.9-.04 1.33-.13 1.85-.36 3.18-2.33 2.9-4.19-.3-1.96-1.99-3.98-3.38-5.3-1.38-1.31-2.99-2.32-4.74-3.05-5.51-2.29-12-2.13-17.64-.44-4.09 1.22-7.87 3.49-10.31 7.05-1.54 2.23-4.5 8.68.63 8.67.81.01 1.61-1.91.71-1.91" class="J"/><path d="M203.27 121.92h-36.88-2.27c-1.44-.03-2.52-1.45-1.98-2.89.42-1.13 4.34-.7 5.2-.72l22.77-.68 10.4-.31c.65-.02 1.34-.11 1.99-.06 1.18.09 1.7.79 1.77 1.9.08 1.19.32 2.65-1.19 2.78-.78.07-1.44 1.98-.35 1.88 2.78-.25 3.06-2.97 3.06-5.17 0-1.73-.7-3.22-2.63-3.31-2.23-.1-4.53.14-6.75.2l-25.45.76-6.92.21c-1.85.09-3.2 1.42-3.39 3.27-.19 1.88.31 3.88 2.52 4.06 1.96.16 4.01 0 5.97 0h12.42 20.99c.82-.01 1.62-1.92.72-1.92" class="J"/><path d="M200.08 128.74h-31.76-1.52c-1.9-.15-2.34-1.83-2.12-3.46.16-1.15 1.02-1.26 1.95-1.26h2.5 19.58 9.07 1.56c1.24.1 2.01.86 2.08 2.1.07 1.13.18 2.51-1.34 2.62-.81.06-1.58 1.98-.72 1.92 2.29-.17 3.54-2.04 3.58-4.21.03-1.86-.24-3.98-2.49-4.32-1.67-.26-3.52-.03-5.2-.03H172.9c-2.02 0-4.05-.07-6.07 0-1.7.06-3.11 1.24-3.53 2.9-.38 1.51-.35 3.86.89 4.95 1.32 1.15 3.88.71 5.49.71h10.6 19.09c.81 0 1.61-1.92.71-1.92" class="J"/></g></g><defs><path id="U" d="M51.77 99.22h33.09v33.6H51.77z"/></defs><clipPath id="V"><use xlink:href="#U"/></clipPath><g clip-path="url(#V)"><defs><path id="W" d="M51.77 99.22h33.09v33.6H51.77z"/></defs><clipPath id="X"><use xlink:href="#W"/></clipPath><g class="G"><path clip-path="url(#X)" d="M67.86 132.82c5.22-.02 10.19-2.52 13.35-6.67 3.25-4.26 4.5-9.91 3.06-15.11-1.32-4.75-4.85-8.78-9.42-10.63-4.78-1.94-10.33-1.48-14.73 1.23-4.48 2.77-7.63 7.59-8.22 12.84a20.34 20.34 0 0 0-.13 2.06l1.42-1.76c-.83 0-1.43 1.01-1.42 1.76.01 3.37 1.04 6.7 2.99 9.45 1.85 2.62 4.51 4.69 7.53 5.8 1.79.67 3.67 1.02 5.57 1.03.61 0 1.12-.6 1.31-1.14.12-.36.25-1.3-.39-1.3-3.2-.01-6.15-.94-8.77-2.79-.31-.22-.61-.45-.9-.69a7.61 7.61 0 0 1-.43-.37 3.32 3.32 0 0 1-.19-.18c.08.07-.1-.09-.13-.12-.56-.53-1.07-1.11-1.54-1.72-.46-.6-.88-1.24-1.26-1.9l-.27-.5-.12-.24c-.03-.05-.05-.11-.08-.16-.01-.01-.08-.17-.04-.09.02.05-.06-.14-.08-.18-.04-.08-.07-.16-.1-.24-.08-.19-.16-.38-.23-.58-.31-.83-.54-1.68-.7-2.55a3.33 3.33 0 0 1-.05-.31l-.03-.18c0-.02-.03-.21-.01-.1s0-.04-.01-.05c-.01-.06-.01-.12-.02-.18-.01-.12-.03-.24-.04-.37a16.21 16.21 0 0 1-.06-1.4l-1.42 1.76c.83 0 1.42-1.01 1.42-1.76a14.99 14.99 0 0 1 .03-.94l.03-.37c-.02.28 0-.03.01-.07l.03-.27a14.41 14.41 0 0 1 .32-1.74c.03-.13.07-.26.1-.39.08-.29-.06.2 0 .01l.06-.21c.09-.28.18-.57.29-.84a9.54 9.54 0 0 1 .3-.74c.02-.05.2-.35.18-.4.03.08-.13.27-.02.04l.12-.24a14.69 14.69 0 0 1 .87-1.48l.12-.18c.11-.17-.2.28-.03.04l.23-.32c.18-.24.37-.48.57-.72a14.61 14.61 0 0 1 .52-.59 1.54 1.54 0 0 0 .12-.13c.21-.22-.2.2.01-.01.1-.1.21-.2.31-.3.42-.4.87-.78 1.33-1.13.1-.08.21-.15.32-.23.14-.11-.23.15.01 0 .05-.03.1-.07.15-.1a18.56 18.56 0 0 1 .74-.47 15.52 15.52 0 0 1 1.57-.81c.12-.05.24-.11.37-.16.16-.07-.22.08.04-.02.06-.02.11-.04.17-.06.29-.11.59-.21.89-.31a16.92 16.92 0 0 1 1.7-.43c1.2-.23 2.19-.3 3.46-.24 1.19.06 2.37.25 3.51.57a13.45 13.45 0 0 1 1.56.55c.52.22 1.02.46 1.51.73 1.01.56 1.96 1.23 2.82 2 .05.05.11.1.16.15-.09-.08.02.02.03.03a8.92 8.92 0 0 1 .31.3 17.42 17.42 0 0 1 .6.63c.39.43.75.89 1.09 1.37.32.45.62.92.89 1.41.14.24.27.49.39.74.03.07.06.13.1.2.08.16.03.06.01.03l.21.49a15.17 15.17 0 0 1 .96 3.36l.03.18c0-.01.04.29.02.14s.02.15.02.14c.01.06.01.12.02.18.03.32.06.65.07.97.03.61.02 1.22-.02 1.82 0 .06-.01.12-.01.18.02-.28 0 .03-.01.07-.01.12-.03.24-.04.37a15.61 15.61 0 0 1-.15.95c-.05.28-.12.56-.19.84-.02.09-.11.56-.05.2-.03.14-.09.29-.13.43a16.71 16.71 0 0 1-.64 1.66c-.01.03-.08.15-.07.16-.02-.05.13-.26.04-.08-.07.13-.13.26-.2.39-.14.26-.28.52-.43.77a18.56 18.56 0 0 1-.47.74c-.1.15-.03-.05.05-.08-.02.01-.08.12-.1.14-.1.14-.21.28-.31.42-.34.44-.7.85-1.08 1.26-.21.22.2-.2-.01.01l-.12.12c-.1.1-.21.2-.32.3-.21.2-.43.39-.66.58-.2.17-.41.33-.62.49-.06.04-.43.3-.18.14l-.4.27c-.48.31-.98.6-1.49.85-.25.13-.5.24-.76.36-.05.02-.4.17-.21.09-.15.06-.3.12-.46.17a15.25 15.25 0 0 1-3.47.82c-.47.06-1.03.09-1.62.09-.61 0-1.12.6-1.31 1.14-.16.37-.29 1.31.35 1.31m.23-16.71c-.34-.28-.26-.69-.26-1.08v-1.92-4.55-.94c0-.02-.01-.02-.01.04-.01-.17.04-.06 0-.02 0 0-.18.23-.07.13.09-.09-.05.04-.07.05.17-.07.32-.15.57-.08.34.1.55.42.57.68v3.41 3.84c0 .23.03.43.23.59l.28.21 1.42 1.07 3.62 2.72c.26.2.67.42.81.74.03.07.02.18.03.2.04.06-.02.02.02-.06.03-.05.06-.09.09-.13-.11.16-.06.05-.02.03.11-.08-.08.03-.03.02-.09.03-.21.05-.34.04-.2-.02-.36-.13-.51-.25l-6.12-4.59c-.08-.05-.14-.1-.21-.15-.36-.27-.88.3-1.02.57-.19.34-.35.89.02 1.17l6.08 4.56c.52.39 1.08.66 1.76.45 1.54-.48 2.39-2.79 1.01-3.89l-2.68-2.01-3.22-2.41.22.47v-3.55-3.81c-.02-.6-.26-1.16-.77-1.5-.58-.38-1.35-.28-1.91.09-.86.58-1.19 1.52-1.19 2.51v4.54 2.47.61c.01.61.23 1.11.71 1.5.34.28.88-.31 1.02-.57.19-.38.34-.9-.03-1.2"/></g></g><defs><path id="Y" d="M0-.32h400v217.64H0z"/></defs><clipPath id="Z"><use xlink:href="#Y"/></clipPath><g clip-path="url(#Z)"><path d="M406.39 234.1c-1-19.96 3.65-38.92 11.18-57.04 8.26-19.84 17.76-39.2 27.01-58.64 1.92-4.09 1.68-6.25-1.04-10.34-7.01-10.18-13.43-20.96-18.36-32.27-12.22-27.94-21.12-57-27.21-86.9-1-4.97-1.68-10.06-2.24-15.15-.12-1.12-.2-2.16-.24-3.17-9.78-9.9-22.33-15.83-36.31-15.91-16.31-.08-20.76 5.01-19.24 19.12.56 5.09 1.2 10.14 2.24 15.15 6.09 29.86 14.99 58.92 27.17 86.86 4.93 11.3 11.38 22.04 18.36 32.27 2.77 4.05 3.01 6.25 1.04 10.34-9.26 19.44-18.76 38.8-27.01 58.64-7.5 18.08-12.14 37.07-11.18 57 .4 8.14 4.05 14.39 10.38 19.24 9.62 7.33 20.6 9.82 32.19 7.58 8.06-1.56 15.27-4.65 19.32-11.62-3.74-4.18-5.86-9.55-6.06-15.16z" fill="#ff2b85"/></g><g clip-path="url(#D)" transform="translate(-2.451 -6.177)" class="C"><path d="M79.4 28.46l2.01 4.51c.22.49.01.81-.62 1.04-.6.22-1.5.33-2.13.22a.83.83 0 0 1-.69-.57l-1.22-3.28-.71.62-.43 2.21c-.18.89-.5 1-1.17 1.05a3.53 3.53 0 0 1-1.78-.33c-.43-.21-.66-.44-.48-1.16l2.49-12.8c.15-.78.28-1.11 1.39-1.08.63.02 1.32.2 1.71.47.38.26.4.71.34 1.02l-1.31 6.73 2.95-2.9c.45-.43.78-.68 1.11-.69a2.85 2.85 0 0 1 1.69.55c.57.44.65 1.02.22 1.42zm20.33 4.59c.02.31-.03.55-.55.73-1.21.4-2.33.56-3.57.52-2.98-.09-4.44-1.78-4.35-4.51.1-3.17 2.34-6.44 6.14-6.32 2.15.07 3.58 1.41 3.53 3.37-.09 2.72-2.48 3.73-6.39 3.48a1.26 1.26 0 0 0 .34.74c.35.33.92.57 1.71.59.77.02 1.4-.14 1.78-.24.49-.13.64-.03.94.36.19.23.38.77.42 1.28m-4.78-5.24c1.94.11 2.78-.25 2.8-.98v-.02c.01-.43-.27-.75-.83-.77-1.15-.04-1.82.92-1.97 1.77m-23.71 5.24c.02.31-.03.55-.55.73-1.21.4-2.33.56-3.57.52-2.98-.09-4.44-1.78-4.35-4.51.1-3.17 2.34-6.44 6.14-6.32 2.15.07 3.58 1.41 3.53 3.37-.09 2.72-2.48 3.73-6.39 3.48a1.26 1.26 0 0 0 .34.74c.35.33.92.57 1.71.59.77.02 1.4-.14 1.78-.24.49-.13.64-.03.94.36.18.23.38.77.42 1.28m-4.79-5.24c1.94.11 2.78-.25 2.8-.98v-.02c.01-.43-.27-.75-.83-.77-1.14-.04-1.81.92-1.97 1.77m-21.07 5.24c.02.31-.03.55-.55.73-1.21.4-2.33.56-3.57.52-2.98-.09-4.44-1.78-4.35-4.51.1-3.17 2.34-6.44 6.14-6.32 2.15.07 3.58 1.41 3.53 3.37-.09 2.72-2.48 3.73-6.39 3.48a1.26 1.26 0 0 0 .34.74c.35.33.92.57 1.71.59.77.02 1.4-.14 1.78-.24.49-.13.64-.03.94.36.19.23.38.77.42 1.28m-4.78-5.24c1.94.11 2.78-.25 2.8-.98v-.02c.01-.43-.27-.75-.83-.77-1.15-.04-1.82.92-1.97 1.77m80.02 5.24c.02.31-.03.55-.55.73-1.21.4-2.33.56-3.57.52-2.98-.09-4.44-1.78-4.35-4.51.1-3.17 2.34-6.44 6.14-6.32 2.15.07 3.58 1.41 3.53 3.37-.09 2.72-2.48 3.73-6.39 3.48a1.26 1.26 0 0 0 .34.74c.35.33.92.57 1.71.59.77.02 1.4-.14 1.78-.24.49-.13.64-.03.94.36.19.23.39.77.42 1.28m-4.78-5.24c1.94.11 2.78-.25 2.8-.98v-.02c.01-.43-.27-.75-.83-.77-1.15-.04-1.81.92-1.97 1.77m-56-4.37c-1.26 0-2.47.59-3.32 1.76-.11-.81-.8-1.76-2.27-1.76-1.3 0-2.45.55-3.32 1.76l.1-.47c.09-.44-.09-.8-.4-.96-.46-.23-.95-.33-1.49-.33s-.97.04-1.12.81l-1.65 8.46c-.1.54-.04.74.21.96.36.31 1.03.52 1.57.58.64.08 1.32-.04 1.42-.55l.84-4.33c.39-2.02 1.21-3.13 1.97-3.13.47 0 .66.38.66.94 0 .38-.06.81-.15 1.26l-.86 4.34c-.08.41-.06.69.28.94.36.27 1 .5 1.58.55.89.08 1.28-.14 1.43-.95l.77-3.93c.4-2.03 1.12-3.13 1.88-3.13.49 0 .72.36.72.87 0 .4-.06.85-.15 1.32l-.84 4.29c-.09.42-.06.72.25.97.38.3 1.09.51 1.62.56.78.07 1.26-.12 1.43-.99l1.01-5.19c.11-.62.21-1.49.21-1.91.02-1.64-.72-2.74-2.38-2.74m72.77-4.02c-1.01.04-1.76.88-1.69 1.91.06.93.71 1.53 1.59 1.49h.02c.99-.04 1.83-.74 1.75-1.91-.06-.91-.7-1.53-1.67-1.49M39.71 21c.28-.41.25-.81.02-1.21-.35-.61-.82-1.12-1.44-1.45-.81-.43-1.42-.39-1.91.49l-1.82 3.1-1.71 2.91c-.11-.3-.73-3.15-1.06-4.52-.08-.34-.25-.7-.49-.94-.6-.6-1.36-.96-2.21-.97-.99-.01-1.26.3-1.17 1.16.03.31.07.61.14.92.37 1.81.91 3.57 1.65 5.26.3.68.69 1.34 1.11 1.96.17.25.18.38.06.63l-1.64 3.55c-.46 1.1-.74 2.25-.68 3.46.02.49.25.87.63 1.17.58.45 1.25.6 1.95.46.63-.12 1.16-.4 1.33-1.12.86-3.77 2.32-7.29 4.39-10.57L39.71 21m93.64 2.87c-.5-.25-1.07-.36-1.67-.35-.9.01-1.08.24-1.23.86-.01.03-1.24 8.67-1.24 8.67-.09.61.18.77.55.95.5.23 1.25.36 1.86.28.64-.08.95-.19 1.09-1.14l1.17-8.21c.05-.44-.1-.85-.53-1.06m-5.33 7.83c-.14-.33-.34-.5-.74-.45-.21.03-.67.16-.85-.01-.15-.13-.25-.3-.26-.55-.01-.2.12-.8.18-1.11l.65-3.36h1.52c.19 0 .58-.21.67-.65.12-.59.17-.87.2-1.16.04-.41-.38-.74-.8-.74l-1.09-.01.34-1.75c.08-.56-.13-.75-.48-.9-.55-.23-1.19-.35-1.72-.33-.71.02-.99.17-1.19 1.1l-.37 1.88h-.68c-.32 0-.61.23-.67.55a48.43 48.43 0 0 0-.22 1.13c-.05.27-.15.83.66.87h.43l-.76 3.88c-.15.7-.22 1.35-.2 1.79.07 1.43.97 2.39 2.86 2.39a3.97 3.97 0 0 0 1.82-.42c.74-.37.83-.55.87-1.11a2.43 2.43 0 0 0-.17-1.04m-37.43-5.47c.34-.29.61-.65.74-1.08.17-.56.18-.84-.67-1.27-.53-.26-1.64-.51-2.87-.47-2.79.08-4.62 1.65-4.49 3.86.07 1.23 1.2 2.12 2.39 2.72.9.44 1.22.73 1.24 1.13s-.28.73-.98.75c-.78.04-1.6-.17-2.2-.41-.49-.24-.71-.11-.89.13-.29.37-.48.79-.52 1.25-.05.55.07.8.67 1.06.67.29 1.71.49 2.78.47 2.9-.06 4.82-1.46 4.68-3.88-.08-1.32-1.35-2.2-2.59-2.84-.72-.34-1.1-.63-1.12-.95-.03-.49.42-.76 1.15-.78.58-.02 1.28.12 1.68.23.05.02.15.04.15.04.58.25.63.23.85.04m20.89 1.14c0 3.6-2.22 7.04-5.71 7.04a4.19 4.19 0 0 1-1.1-.14c-.23-.06-.42-.14-.56-.23h-.04l-.57 2.92c-.2.95-.46 1.05-1.19 1.13-.6.07-1.29-.07-1.84-.33-.01-.01-.02-.01-.03-.01-.36-.18-.58-.37-.46-1.04h0c0-.009.441-2.281.946-4.878l1.464-7.522c.1-.5.26-.75.69-.83.19-.04.61-.04.87 0 .54.06.96.23 1.22.39.28.17.41.53.35.9l-.05.25c.36-.48.7-.78 1.18-1.04.54-.3 1.14-.46 1.73-.46 2.18-.01 3.1 1.78 3.1 3.85m-3.62.35c0-.68-.21-1.36-.96-1.36-.28 0-.54.1-.77.28-.53.41-.93 1.22-1.11 2.25l-.45 2.53a1.36 1.36 0 0 0 .57.33 1.44 1.44 0 0 0 .43.06c1.35 0 2.28-2.38 2.29-4.09" clip-path="url(#E)"/></g></svg>