<svg xmlns="http://www.w3.org/2000/svg" width="512" height="512" viewBox="0 0 612 612" xmlns:v="https://vecta.io/nano"><path d="M581.4 520.199H30.6c-16.891 0-30.6 13.709-30.6 30.6S13.709 581.4 30.6 581.4h550.8c16.891 0 30.6-13.709 30.6-30.602s-13.709-30.599-30.6-30.599zM30.6 91.799h550.8c16.891 0 30.6-13.708 30.6-30.6s-13.709-30.6-30.6-30.6H30.6C13.709 30.6 0 44.308 0 61.2s13.709 30.599 30.6 30.599zm550.8 183.6H30.6C13.709 275.399 0 289.108 0 306s13.709 30.6 30.6 30.6h550.8c16.891 0 30.6-13.709 30.6-30.6s-13.709-30.601-30.6-30.601z" fill="#fff"/></svg>