<svg height="512pt" viewBox="0 0 512.00019 512" width="512pt" xmlns="http://www.w3.org/2000/svg"><path d="m501.269531 10.738281-253.320312 253.324219 91.726562 188.660156c3.414063 7.019532 13.613281 6.410156 16.164063-.972656l148.191406-429.03125c1.578125-4.570312.175781-9.042969-2.761719-11.980469zm0 0" fill="#00aaf0"/><path d="m501.269531 10.738281c-2.933593-2.9375-7.410156-4.335937-11.976562-2.757812l-429.035157 148.191406c-7.378906 2.550781-7.992187 12.746094-.96875 16.164063l188.660157 91.726562zm0 0" fill="#00c3ff"/><path d="m103.289062 172.335938c-7.019531-3.417969-6.40625-13.613282.972657-16.164063l384.328125-132.75 12.683594-12.683594c-2.9375-2.933593-7.410157-4.335937-11.980469-2.757812l-429.035157 148.191406c-7.378906 2.550781-7.992187 12.746094-.96875 16.164063l188.660157 91.726562 14.394531-14.394531zm0 0" fill="#00aaf0"/><path d="m262.34375 249.667969-14.394531 14.394531 91.730469 188.660156c3.414062 7.019532 13.609374 6.410156 16.160156-.972656l1.761718-5.097656zm0 0" fill="#039add"/><path d="m35.804688 211.285156-33.605469 33.605469c-2.929688 2.929687-2.929688 7.679687-.003907 10.605469 2.929688 2.929687 7.679688 2.929687 10.609376 0l33.605468-33.605469c2.929688-2.925781 2.929688-7.675781 0-10.605469-2.929687-2.929687-7.675781-2.929687-10.605468 0zm0 0"/><path d="m99.378906 274.863281-33.605468 33.605469c-2.929688 2.929688-2.929688 7.679688 0 10.605469 2.929687 2.929687 7.675781 2.929687 10.605468 0l33.605469-33.605469c2.929687-2.929688 2.929687-7.675781 0-10.605469-2.929687-2.929687-7.675781-2.929687-10.605469 0zm0 0"/><path d="m162.953125 338.4375-33.605469 33.605469c-2.929687 2.929687-2.929687 7.679687 0 10.605469 2.929688 2.929687 7.679688 2.929687 10.609375 0l33.605469-33.605469c2.925781-2.925781 2.925781-7.675781 0-10.605469-2.929688-2.925781-7.679688-2.925781-10.609375 0zm0 0"/><path d="m226.53125 402.015625-33.605469 33.605469c-2.929687 2.925781-2.929687 7.675781 0 10.605468 2.929688 2.929688 7.675781 2.929688 10.605469 0l33.605469-33.605468c2.929687-2.929688 2.929687-7.679688 0-10.605469-2.929688-2.929687-7.675781-2.929687-10.605469 0zm0 0"/><path d="m300.714844 476.199219c2.925781-2.929688 2.925781-7.679688 0-10.609375-2.933594-2.929688-7.679688-2.929688-10.609375 0l-33.605469 33.605468c-2.929688 2.929688-2.929688 7.679688 0 10.605469 2.929688 2.929688 7.679688 2.929688 10.609375 0zm0 0"/><path d="m434.347656 224.0625c3.914063 1.355469 8.1875-.726562 9.539063-4.640625l67.03125-194.066406c5.203125-15.054688-9.234375-29.46875-24.273438-24.273438l-429.035156 148.191407c-13.664063 4.71875-14.816406 23.667968-1.800781 29.996093l186.328125 90.59375 90.59375 186.328125c6.339843 13.035156 25.269531 11.875 29.996093-1.800781l69.722657-201.855469c1.351562-3.917968-.726563-8.1875-4.640625-9.539062-3.910156-1.351563-8.183594.726562-9.539063 4.640625l-69.722656 201.855469c-.375 1.085937-1.828125 1.171874-2.328125.140624l-89.390625-183.855468 118.527344-118.527344 118.53125-118.527344-64.179688 185.804688c-1.351562 3.914062.726563 8.183594 4.640625 9.535156zm-371.839844-60.609375 420.773438-145.339844-237.058594 237.058594-183.855468-89.394531c-1.035157-.503906-.945313-1.949219.140624-2.324219zm0 0"/></svg>