<svg xmlns="http://www.w3.org/2000/svg" width="1200" height="735" preserveAspectRatio="xMidYMid meet" fill="#333" xmlns:v="https://vecta.io/nano"><path fill="#c12026" d="M182.5 154c-15.9 1.1-16.9 1.5-12.7 4 6.7 4.1 6.6 9.5-.3 16.9l-4.4 4.7 4.9 1.7c10.1 3.6 12.9 12 7 20.9-1.7 2.6-4.1 5.3-5.5 6.2l-2.4 1.6 2.5 4.3c2.9 5.2 4 12.2 2.5 15.9-1.4 3.6-6.4 6.6-12.3 7.4-2.6.4-4.5 1-4.2 1.5.7 1.3.7 9.3 0 11.7-.9 2.7-5.5 5.2-9.5 5.2-1.7 0-5.3-.9-8.1-1.9l-5-1.9v2.1c0 1.2-.9 4-1.9 6.3-3.1 6.9-10.4 8.2-15.7 2.9-1.4-1.4-2.7-2.5-2.9-2.5-.3 0-.5 20.7-.5 45.9 0 40.9.2 46 1.6 46.5.9.3 17.1.6 36 .6H186l.3-35.8-.2-70.3c-.4-39.5-1.3-35.5 8.9-37.9 13.5-3.2 27.2-.8 33.9 5.9 6.6 6.6 6.5 4.9 6.8 74.8l.4 63.3h30.7c16.9 0 31.3-.4 32-.9 1.2-.7 1.3-12.6.9-68.7l-.8-69.9c-.9-4.7 24.1-7.7 34.7-4.2 2.9 1 6.7 3.3 8.7 5.3 6.8 6.8 6.7 5.7 6.7 75v62.2l2.3.6c2.9.8 64.5.8 67.5 0l2.3-.7-.4-66.6c-.3-64.5-.4-66.9-2.5-74.9-7.8-29.7-31.4-49.6-66.1-55.7-25.3-4.4-53.7-2-80.3 6.9l-10 3.4-7.2-3.4c-12.5-6-24.8-8.5-43.1-8.9-8.8-.2-21.8.1-29 .5z"/><path fill="#ce0606" d="M525.2 154.1c-42.7 5-67.9 27-77.4 67.8-2.9 12.5-3.7 44.9-1.4 58.1 4.9 27.8 17.1 47.9 37 60.9 19.4 12.6 43.7 18.3 79.1 18.4 19.6.1 33.5-1.2 52-4.9 10.6-2.1 22.5-5.1 22.5-5.7-.1-1.4-13-51-13.4-51.4-.3-.3-6.7.6-14.3 2-20.3 3.9-28 4.7-42.8 4.7-14.5 0-27.5-2-33.6-5.1-6.2-3.1-10.9-10.6-12.4-19.7l-.7-4.2h58.5 58.5l.6-3.1c.3-1.6 1.1-8.2 1.7-14.5 2.3-23.4-2.7-48.2-13.2-66.1-4.4-7.4-16.9-19.9-24.1-24.2-19.6-11.5-48.1-16.3-76.6-13zm27.5 53c6.6 2.8 9.5 8.6 10.8 22l.7 6.6-11.6.8c-6.3.4-16.2.4-21.9 0l-10.3-.7.8-7.9c1.1-11.7 3.9-17.3 10.3-20.7 6.4-3.3 13.6-3.4 21.2-.1z"/><path d="M745.5 153.6c-27.6 1.8-52.1 5.8-68.5 11.2l-8.5 2.8-.3 93.2-.2 93.2h35.5H739v-71-70.9l3.8-1c6.9-1.9 18.7-2.8 24.5-2.1 8.6 1.2 14 4.8 17.4 11.7l2.8 5.8.3 63c.2 48 .6 63.1 1.5 63.7 1.6 1 66.9 1 68.5 0 1-.7 1.2-14.2 1-68.8-.4-76.1 0-72.1-8-88.4-3.3-6.9-5.7-10.1-12.7-17-12.1-12.1-27-19.5-47.1-23.5-7.5-1.5-34.1-2.6-45.5-1.9zm141.8 74.8l.3 69.1 2.4 7c4.1 12.5 8.9 20.4 17.6 29 18.3 18.3 41.3 25.9 78 25.8 33.7-.1 61.4-4 85.9-12l7.9-2.6-.7-6c-.3-3.3-.6-45.1-.6-92.8V159h-35.5-35.5l-.2 70.7-.3 70.8-6 1.7c-3.3.9-9.9 1.7-14.6 1.7-13.9.1-20.8-3.4-25.3-12.9-2.1-4.4-2.1-5.7-2.4-68.2l-.3-63.7-35.5.1H887l.3 69.2z" fill="#c12026"/><path d="M115.6 386.5c-.3.9-.5 48.5-.3 105.7l.2 104.2 9 2.9c26.4 8.4 62.5 10.9 87 5.8 30.9-6.4 48.8-22.6 56.7-51.6 1.9-7 2.2-10.5 2.2-29 0-18.6-.3-21.9-2.2-29-7.2-26.1-23-42.1-47.7-48.6-9.6-2.5-31.2-2.9-41.3-.6-3.4.7-6.4 1.1-6.7.9-.3-.3-.5-14.4-.5-31.4V385h-27.9c-24.2 0-28 .2-28.5 1.5zm79.9 104.4c5.3 2.4 11.9 10 14 15.9 4.2 12.2 3.9 30.8-.7 41.4-2.4 5.7-9 12-14.4 13.9-4.6 1.6-19.1 1.6-20.7 0-.8-.8-1.2-11.4-1.2-36.4v-35.2l3-.6c6.3-1.4 15.9-.9 20 1zM849 416.4v31.5l-2.9-.9c-1.7-.4-7.8-1.3-13.8-2-11.8-1.2-23.9-.3-34.3 2.7-15.9 4.5-31.4 17.2-38.2 31.3-7.8 15.9-10.9 36.2-8.8 57.4 4.3 44.4 26.6 66 73 70.7 20.4 2 49.5-.8 69.5-6.7l10.8-3.1c1.6-.5 1.7-6.4 1.7-106.4V385h-28.5H849v31.4zm-3.7 73.2l3.7.7-.2 36.1-.3 36.1-6 .7c-11.8 1.5-21.6-2.1-26.8-10.1-4.9-7.4-6.1-12.6-6.1-26.6 0-11.1.3-13.8 2.2-18.6 6.2-15.6 16.3-21.1 33.5-18.3zm-327.3-46c-16.2 2-34.5 6.3-43.7 10.4l-4.3 1.9v73.5V603h28.5H527v-56.4-56.3l5.7-1.2c8.9-1.8 19.5-1.4 30.3 1.1 1 .2 2.1-4.8 4.6-21.2 1.8-11.8 3.1-21.6 2.9-21.8-2.1-2.2-41.9-4.9-52.5-3.6zm120.5.1c-10.1.9-44.7 8.1-47.5 9.8-.6.4 5.2 42.1 6 42.9.3.2 4.2-.6 8.7-1.9 24.7-7.2 51.9-9.4 60.6-4.9 4.8 2.5 6.7 6.9 6.7 15.6v7.6l-25.7.5c-27.5.4-31.2 1-44.1 6.3-7.8 3.3-15.1 10.9-18.3 19.2-1.8 4.5-2.3 8.4-2.7 18.7-.4 11.4-.1 13.8 1.8 19.4 4.1 12.1 11.2 19.5 23.7 24.6 22.8 9.2 73.6 8.2 112.6-2.2l9.7-2.6v-52.6c0-57.3-.1-58.2-5.8-69.9-3.4-7.1-14-18.1-20.7-21.5-14.9-7.5-41.4-11.2-65-9zM673 556.4v13.4l-4.6.7c-17.7 2.6-27.8-2.3-27.8-13.6 0-10.1 6-13.4 24.7-13.8l7.7-.1v13.4zm307-112.3c-10.8 1.3-41.4 7.8-44 9.4-.3.2.8 9.9 2.5 21.7 2.4 16.7 3.4 21.3 4.6 21.2.8-.1 5.7-1.4 10.9-2.8 15.2-4.2 26.6-5.9 40.5-6 11.4-.1 13.4.2 16.5 1.9 5 2.9 7 7.5 7 16.2v7.1l-25.7.5c-27.9.5-32.7 1.2-44.8 6.7-14.3 6.5-20.6 18.9-20.6 40.1.1 21.8 7.7 34 25.8 41.4 22.9 9.2 74.9 8.1 114.1-2.5l8.2-2.2v-52.7c0-57.8 0-58.3-6.1-70.3-4.3-8.4-14-18-22.1-21.8-16.5-7.7-42.3-10.7-66.8-7.9zm38 112.3v13.4l-4.6.7c-12.5 1.8-22.3-.3-25.8-5.8-3.6-5.5-2.4-14.3 2.5-17.9 3.1-2.3 9.8-3.5 20.2-3.7l7.7-.1v13.4zm-728-56.9c0 56.9.4 61.1 6.2 73.3 3.8 8 13.6 18.5 21.9 23.5 8.2 4.8 21.9 9.2 33.9 10.7 21.2 2.8 63.1-1.4 83.7-8.4l6.8-2.3.3-74.1.2-74.2h-28.5H386v56.4 56.4l-5.2 1.3c-2.9.8-8.7 1.3-12.8 1.3-9.6 0-15-2.6-18.2-8.7-2.3-4.2-2.3-4.4-2.6-55.5l-.3-51.2h-28.4H290v51.5z"/></svg>